<?xml version="1.0" encoding="utf-8"?>
<!-- Generator: Adobe Illustrator 23.0.1, SVG Export Plug-In . SVG Version: 6.00 Build 0)  -->
<svg version="1.1" id="Layer_1" xmlns="http://www.w3.org/2000/svg" xmlns:xlink="http://www.w3.org/1999/xlink" x="0px" y="0px"
	 viewBox="0 0 100 125" style="enable-background:new 0 0 100 125;" xml:space="preserve">
<path d="M70,50.7v8.9c0,6.8-3.4,13.2-9.1,16.9l-0.5,0.4c-6.7,4.3-15.2,4.2-21.8-0.3l0,0C33.2,72.8,30,66.6,30,60
	c0-7.8,0-16.8,0-21.7c0-2.3,0-4.7,0-7.1c0-1.7,1.4-3.1,3.1-3.1l0,0c1.7,0,3,1.4,3.1,3.1c0.1,3.3,0,6.8,0,10.3c0,1.3,0,2.6,0,3.9
	c0,0.6,0.4,1,1,1c0.5,0,1-0.5,1-1V25.3c0-1.7,1.4-3.1,3.1-3.1l0,0c1.7,0,3.1,1.4,3.1,3.1v19.9c0,0.6,0.4,1,1,1c0.5,0,1-0.5,1-1V23.1
	c0-1.7,1.4-3.1,3.1-3.1l0,0c1.7,0,3.1,1.4,3.1,3.1v22.1c0,0.5,0.4,1,1,1c0.5,0,0.9-0.5,0.9-1c0-0.3,0-0.6,0-1c0-4.5-0.1-11.1,0-16.4
	c0-1.7,1.4-3.1,3.1-3.1h0.1c1.7,0,3.1,1.4,3.1,3.1c0,4.4,0,10,0,13.9c0,3.7,0,12,0,15.4c0,0.5,0.4,0.9,0.8,0.9
	c0.5,0,0.9-0.4,0.8-0.9c0-0.6,0-3.7,0-6.5c0-2.2,1.7-4,3.9-4l0,0C68.3,46.7,70,48.5,70,50.7z"/>
</svg>
