<?xml version="1.0" encoding="utf-8"?>
<!-- Generator: Adobe Illustrator 23.0.1, SVG Export Plug-In . SVG Version: 6.00 Build 0)  -->
<svg version="1.1" id="Layer_1" xmlns="http://www.w3.org/2000/svg" xmlns:xlink="http://www.w3.org/1999/xlink" x="0px" y="0px"
	 viewBox="0 0 90 112.5" style="enable-background:new 0 0 90 112.5;" xml:space="preserve">
<path d="M36.5,83.8c0,1.7,1.5,3.2,3.2,3.2s3.2-1.4,3.2-3.2V56.5h-6.4V83.8z"/>
<path d="M47.1,83.8c0,1.7,1.5,3.2,3.2,3.2s3.2-1.4,3.2-3.2V56.5h-6.4V83.8z"/>
<path d="M45,19.9c4.7,0,8.5-3.8,8.5-8.4c0-0.5,0-1-0.1-1.5c-1.4,0.6-2.9,0.9-4.5,0.9c-2.7,0-5.2-0.9-7.3-2.5
	c-1.5,0.7-3.2,1.1-4.9,1.1c-0.2,0.6-0.2,1.3-0.2,2C36.5,16.2,40.3,19.9,45,19.9z"/>
<path d="M48.9,9.3c1.5,0,2.8-0.3,4.1-0.8C51.7,5.2,48.6,3,45,3c-3.4,0-6.4,2-7.7,4.9c1.6-0.1,3.2-0.6,4.5-1.5
	C43.6,8.2,46.1,9.3,48.9,9.3z"/>
<polygon points="84.8,48.4 79.4,48.4 76.6,48.4 13.4,48.4 10.6,48.4 5.2,48.4 5.2,53.8 10.6,53.8 10.6,87 13.4,87 13.4,53.8 
	76.6,53.8 76.6,87 79.4,87 79.4,53.8 84.8,53.8 "/>
<path d="M23.1,45.7l-3.7-10.2l8.2,4.7c0.4,0.2,0.8,0.3,1.3,0.4c0.8,0.1,1.5-0.2,2.1-0.8l5.5-5.4v11.4h10h7h0.6l7.4-7.3
	c1.1-1.1,1.1-2.8,0-3.8l-10-9.9c-1.6-1.9-3.9-3-6.5-3c-2.8,0-5.3,1.4-6.8,3.4c0,0,0,0,0,0l-9.5,9.5l-10.4-5.9v-7.2h-2.7v6
	c-0.9,0-1.9,0.5-2.4,1.3c-0.8,1.3-0.3,2.9,1,3.7l1.1,0.6l-4.6,12.6H23.1z M53.5,38.7v-4.5l2.3,2.2L53.5,38.7z"/>
<polygon points="74.6,45.7 69.7,35.2 69.7,26.8 67,26.8 67,35.2 62.1,45.7 "/>
<path d="M79.4,45.7c0.8,0,1.4-0.6,1.4-1.4V27.8H78v16.6C78,45.1,78.6,45.7,79.4,45.7z"/>
</svg>
