<?xml version="1.0" encoding="utf-8"?>
<!-- Generator: Adobe Illustrator 23.0.1, SVG Export Plug-In . SVG Version: 6.00 Build 0)  -->
<svg version="1.1" id="Layer_1" xmlns="http://www.w3.org/2000/svg" xmlns:xlink="http://www.w3.org/1999/xlink" x="0px" y="0px"
	 viewBox="0 0 100 125" style="enable-background:new 0 0 100 125;" xml:space="preserve">
<g>
	<ellipse cx="50.9" cy="49.3" rx="13.6" ry="13.5"/>
	<path d="M59.4,35c0.3,0.2,0.7,0.3,1.1,0.3c0.7,0,1.4-0.4,1.8-1l6.4-10.6c0.9,0.3,1.8,0.5,2.7,0.5c4.5,0,8.1-3.6,8.1-8.1
		S75.9,8,71.4,8s-8.1,3.6-8.1,8.1c0,2,0.8,3.8,2,5.3l-6.5,10.8C58.1,33.1,58.4,34.4,59.4,35z"/>
	<path d="M86.9,44.2c-3.8,0-6.9,2.6-7.8,6h-9.7c-1.1,0-2.1,0.9-2.1,2s0.9,2,2.1,2H79c0.9,3.5,4.1,6,7.8,6c4.5,0,8.1-3.6,8.1-8.1
		S91.4,44.2,86.9,44.2z"/>
	<path d="M59.1,75.8l-2.4-9.3c-0.3-1.1-1.4-1.8-2.5-1.5s-1.8,1.4-1.5,2.5l2.4,9.4c-2.5,1.4-4.2,4-4.2,7c0,4.5,3.6,8.1,8.1,8.1
		s8.1-3.6,8.1-8.1C67.2,79.5,63.6,75.9,59.1,75.8z"/>
	<path d="M32.1,52.9l-12.7,4.4c-1.5-1.8-3.7-3-6.3-3c-4.5,0-8.1,3.6-8.1,8.1s3.6,8.1,8.1,8.1s8.1-3.6,8.1-8.1c0-0.4-0.1-0.9-0.1-1.3
		l12.3-4.3c1.1-0.4,1.6-1.5,1.3-2.6S33.2,52.5,32.1,52.9z"/>
	<path d="M38.6,34.2l-4.4-3.3c0.4-1,0.6-2,0.6-3.1c0-4.5-3.6-8.1-8.1-8.1s-8.1,3.6-8.1,8.1s3.6,8.1,8.1,8.1c1.9,0,3.6-0.7,5-1.7
		l4.4,3.4c0.4,0.3,0.8,0.4,1.2,0.4c0.6,0,1.2-0.3,1.6-0.8C39.7,36.2,39.5,34.9,38.6,34.2z"/>
</g>
</svg>
