<?xml version="1.0" encoding="utf-8"?>
<!-- Generator: Adobe Illustrator 23.0.1, SVG Export Plug-In . SVG Version: 6.00 Build 0)  -->
<svg version="1.1" id="Layer_1" xmlns="http://www.w3.org/2000/svg" xmlns:xlink="http://www.w3.org/1999/xlink" x="0px" y="0px"
	 viewBox="0 0 61 75" style="enable-background:new 0 0 61 75;" xml:space="preserve">
<style type="text/css">
	.st0{fill-rule:evenodd;clip-rule:evenodd;}
</style>
<title>20 -VR Immersion- (Solid)</title>
<desc>Created with Sketch.</desc>
<g>
	<g transform="translate(-1199.000000, -460.000000)">
		<g transform="translate(1199.000000, 460.000000)">
			<path class="st0" d="M2,10c0.6,0,1-0.4,1-1V2h7c0.6,0,1-0.4,1-1s-0.4-1-1-1H2C1.4,0,1,0.4,1,1v8C1,9.6,1.4,10,2,10"/>
			<path class="st0" d="M60,0h-8c-0.6,0-1,0.4-1,1s0.4,1,1,1h7v7c0,0.6,0.4,1,1,1c0.6,0,1-0.4,1-1V1C61,0.4,60.5,0,60,0"/>
			<path class="st0" d="M60,30c-0.6,0-1,0.4-1,1v7h-7c-0.6,0-1,0.4-1,1s0.4,1,1,1h8c0.6,0,1-0.4,1-1v-8C61,30.4,60.5,30,60,30"/>
			<path class="st0" d="M2,40h8c0.6,0,1-0.4,1-1s-0.4-1-1-1H3v-7c0-0.6-0.4-1-1-1s-1,0.4-1,1v8C1,39.6,1.4,40,2,40"/>
			<path class="st0" d="M49,8h4v4c0,0.6,0.4,1,1,1c0.6,0,1-0.4,1-1V7c0-0.6-0.4-1-1-1h-5c-0.6,0-1,0.4-1,1S48.4,8,49,8"/>
			<path class="st0" d="M7,7v5c0,0.6,0.4,1,1,1s1-0.4,1-1V8h4c0.6,0,1-0.4,1-1s-0.4-1-1-1H8C7.4,6,7,6.4,7,7"/>
			<path class="st0" d="M8,27c-0.6,0-1,0.4-1,1v5c0,0.6,0.4,1,1,1h5c0.6,0,1-0.4,1-1s-0.4-1-1-1H9v-4C9,27.4,8.5,27,8,27"/>
			<path class="st0" d="M54,27c-0.6,0-1,0.4-1,1v4h-4c-0.6,0-1,0.4-1,1s0.4,1,1,1h5c0.6,0,1-0.4,1-1v-5C55,27.4,54.5,27,54,27"/>
			<path class="st0" d="M31,51c-0.1,0-0.2,0-0.4-0.2l-2.4-3.2C29.1,47.9,30,48,31,48c0.9,0,1.9-0.1,2.7-0.3l-2.4,3.2
				C31.2,51,31.1,51,31,51 M17,30H45c-0.5,9.2-7.6,16-14,16S17.5,39.2,17,30 M31,4c6.5,0,11.5,6,13.3,12H17.7C19.5,10,24.5,4,31,4
				 M44,22.5c0,1.4-1.1,2.5-2.5,2.5h-21c-1.4,0-2.5-1.1-2.5-2.5c0-1.4,1.1-2.5,2.5-2.5h21C42.9,20,44,21.1,44,22.5 M58,50.8
				c-4.7-2.5-12.7-5.2-18-6.4c4.1-3.5,6.7-9.2,7-14.6c1.2-0.4,2-1.5,2-2.8c0.6,0,1-0.4,1-1v-1c0-0.6-0.4-1-1-1v-2c0.6,0,1-0.4,1-1
				v-1c0-0.6-0.4-1-1-1c0-1.5-1.2-2.8-2.7-3C44.5,9.1,38.7,2,31,2S17.5,9.1,15.7,16c-1.5,0.2-2.7,1.4-2.7,3c-0.6,0-1,0.4-1,1v1
				c0,0.6,0.4,1,1,1v2c-0.6,0-1,0.4-1,1v1c0,0.6,0.4,1,1,1c0,1.3,0.8,2.4,2,2.8c0.2,5.4,2.9,11.1,7,14.6c-5.3,1.1-13.3,3.9-18,6.4
				c-1.9,1-3,2.9-3,4.9V59c0,0.6,0.4,1,1,1h37v-5c0-0.6,0.4-1,1-1h8c0.6,0,1,0.4,1,1v5h11c0.6,0,1-0.4,1-1v-3.3
				C61,53.6,59.8,51.8,58,50.8"/>
			<polygon class="st0" points="41,60 47,60 47,56 41,56 			"/>
		</g>
	</g>
</g>
</svg>
