<?xml version="1.0" encoding="utf-8"?>
<!-- Generator: Adobe Illustrator 23.0.1, SVG Export Plug-In . SVG Version: 6.00 Build 0)  -->
<svg version="1.1" id="Layer_1" xmlns="http://www.w3.org/2000/svg" xmlns:xlink="http://www.w3.org/1999/xlink" x="0px" y="0px"
	 viewBox="0 0 100 125" style="enable-background:new 0 0 100 125;" xml:space="preserve">
<path d="M85.6,35.7V25.5c0,0,0,0,0-0.1c0,0,0-0.1,0-0.1c0-0.2,0-0.3-0.1-0.5c0,0,0,0,0,0c-0.1-0.2-0.1-0.3-0.3-0.4
	c0,0,0-0.1-0.1-0.1c-0.1-0.1-0.2-0.2-0.4-0.3c0,0,0,0,0,0l-13.5-8c-0.3-0.2-0.6-0.2-0.9-0.2H30.3c-0.3,0-0.6,0.1-0.9,0.2l-13.5,8
	c0,0,0,0,0,0c-0.1,0.1-0.3,0.2-0.4,0.3c0,0,0,0-0.1,0.1c-0.1,0.1-0.2,0.3-0.3,0.4c0,0,0,0,0,0c-0.1,0.1-0.1,0.3-0.1,0.5
	c0,0,0,0.1,0,0.1c0,0,0,0,0,0.1v10.3c0,1,0.8,1.7,1.7,1.7h2.1l-3.3,2.7c0,0,0,0,0,0c-0.1,0.1-0.2,0.2-0.3,0.3c0,0,0,0,0,0.1
	c-0.1,0.1-0.1,0.2-0.2,0.4c0,0,0,0.1,0,0.1c0,0.1-0.1,0.3-0.1,0.4v10.3c0,1,0.8,1.7,1.7,1.7h2.1l-3.3,2.7c0,0,0,0,0,0
	c-0.1,0.1-0.2,0.2-0.3,0.4c0,0,0,0,0,0.1c-0.1,0.1-0.1,0.2-0.2,0.4c0,0,0,0.1,0,0.1c0,0.1-0.1,0.3-0.1,0.4v10.3c0,1,0.8,1.7,1.7,1.7
	h2.1l-3.3,2.7c0,0,0,0,0,0c-0.1,0.1-0.2,0.2-0.3,0.3c0,0,0,0,0,0.1c-0.1,0.1-0.1,0.2-0.2,0.4c0,0,0,0.1,0,0.1c0,0.1-0.1,0.3-0.1,0.4
	v10.3c0,1,0.8,1.7,1.7,1.7h67.1c1,0,1.7-0.8,1.7-1.7V73.6c0-0.2,0-0.3-0.1-0.4c0,0,0-0.1,0-0.1c0-0.1-0.1-0.3-0.2-0.4c0,0,0,0,0,0
	c-0.1-0.1-0.2-0.2-0.3-0.3c0,0,0,0,0,0l-3.4-2.7h2.3c1,0,1.7-0.8,1.7-1.7V57.6c0-0.2,0-0.3-0.1-0.4c0,0,0-0.1,0-0.1
	c0-0.1-0.1-0.3-0.2-0.4c0,0,0,0,0,0c-0.1-0.1-0.2-0.2-0.3-0.4c0,0,0,0,0,0l-3.4-2.7h2.3c1,0,1.7-0.8,1.7-1.7V41.5
	c0-0.2,0-0.3-0.1-0.4c0,0,0-0.1,0-0.1c0-0.1-0.1-0.3-0.2-0.4c0,0,0,0,0,0c-0.1-0.1-0.2-0.2-0.3-0.4c0,0,0,0,0,0l-3.4-2.7h2.3
	C84.9,37.5,85.6,36.7,85.6,35.7z M30.7,19.2h39.2l7.7,4.6H23.1L30.7,19.2z M82.2,82.2H18.5v-6.8h63.7V82.2z M78.9,71.9H21.6l2.8-2.3
	H76L78.9,71.9z M82.2,66.1H18.5v-6.8h63.7V66.1z M78.9,55.8H21.6l2.8-2.3H76L78.9,55.8z M82.2,50.1H18.5v-6.8h63.7V50.1z M78.9,39.8
	H21.6l2.8-2.3H76L78.9,39.8z M82.2,34H18.5v-6.8h63.7V34z"/>
<circle cx="77.8" cy="30.6" r="1.5"/>
<circle cx="77.8" cy="46.7" r="1.5"/>
<circle cx="77.8" cy="62.7" r="1.5"/>
<circle cx="77.8" cy="78.8" r="1.5"/>
<circle cx="73" cy="46.7" r="1.5"/>
<circle cx="73" cy="62.7" r="1.5"/>
<path d="M22.3,80.2h6.3c0.8,0,1.4-0.6,1.4-1.4s-0.6-1.4-1.4-1.4h-6.3c-0.8,0-1.4,0.6-1.4,1.4S21.5,80.2,22.3,80.2z"/>
</svg>
