<?xml version="1.0" encoding="utf-8"?>
<!-- Generator: Adobe Illustrator 23.0.1, SVG Export Plug-In . SVG Version: 6.00 Build 0)  -->
<svg version="1.1" id="Layer_1" xmlns="http://www.w3.org/2000/svg" xmlns:xlink="http://www.w3.org/1999/xlink" x="0px" y="0px"
	 viewBox="0 0 100 125" style="enable-background:new 0 0 100 125;" xml:space="preserve">
<path d="M85,39.6C85,22.1,70.9,8,53.4,8C36,8,21.9,22.1,21.9,39.6c0,1.2,0.1,2.3,0.2,3.4c-2.3,4.7-6.6,13.2-6.7,13.3
	C15.1,56.9,15,57.4,15,58c0,2.2,1.8,4,4,4h4l0,11.4c0,3.1,2.5,5.6,5.6,5.6l11.5,0l3.9,13l37.6-11.4l-5.7-18.7
	C81.5,56.1,85,48.3,85,39.6z M50,40c0,0.4,0,0.7-0.1,1.1l7.7,4.5c1.2-1,2.7-1.6,4.4-1.6c3.9,0,7,3.1,7,7s-3.1,7-7,7
	c-3.9,0-7-3.1-7-7c0-0.4,0-0.7,0.1-1.1l-7.7-4.5c-1.2,1-2.7,1.6-4.4,1.6c-3.9,0-7-3.1-7-7s3.1-7,7-7c1.7,0,3.2,0.6,4.4,1.6l7.7-4.5
	C55,29.7,55,29.4,55,29c0-3.9,3.1-7,7-7c3.9,0,7,3.1,7,7s-3.1,7-7,7c-1.7,0-3.2-0.6-4.4-1.6l-7.7,4.5C50,39.2,50,39.6,50,40z"/>
</svg>
