<?xml version="1.0" encoding="utf-8"?>
<!-- Generator: Adobe Illustrator 23.0.1, SVG Export Plug-In . SVG Version: 6.00 Build 0)  -->
<svg version="1.1" id="Layer_1" xmlns="http://www.w3.org/2000/svg" xmlns:xlink="http://www.w3.org/1999/xlink" x="0px" y="0px"
	 viewBox="0 0 100 125" style="enable-background:new 0 0 100 125;" xml:space="preserve">
<g>
	<path d="M63.5,10.3h-27c-3,0-5.5,2.5-5.5,5.5v68.5c0,3,2.5,5.5,5.5,5.5h26.9c3,0,5.5-2.5,5.5-5.5V15.8
		C68.9,12.7,66.5,10.3,63.5,10.3z M47,15.5h6c0.3,0,0.5,0.2,0.5,0.5c0,0.3-0.2,0.5-0.5,0.5h-6c-0.3,0-0.5-0.2-0.5-0.5
		C46.6,15.7,46.8,15.5,47,15.5z M50,86.9c-1.8,0-3.3-1.5-3.3-3.3s1.5-3.3,3.3-3.3s3.3,1.5,3.3,3.3S51.8,86.9,50,86.9z M66.8,76.7
		c0,0.6-0.5,1.1-1.1,1.1H34.3c-0.6,0-1.1-0.5-1.1-1.1V22.1c0-0.6,0.5-1.1,1.1-1.1h31.4c0.6,0,1.1,0.5,1.1,1.1
		C66.8,22.1,66.8,76.7,66.8,76.7z"/>
</g>
</svg>
